<?xml version="1.0" encoding="utf-8"?>
<!-- Generator: Adobe Illustrator 26.0.1, SVG Export Plug-In . SVG Version: 6.00 Build 0)  -->
<svg version="1.1" id="Слой_1" xmlns="http://www.w3.org/2000/svg" xmlns:xlink="http://www.w3.org/1999/xlink" x="0px" y="0px"
	 viewBox="0 0 120 33" style="enable-background:new 0 0 120 33;" xml:space="preserve">
<style type="text/css">
	.st0{fill:#FFFFFF;}
	.st1{fill:#00B7FF;}
</style>
<path class="st0" d="M5.1,24.5c-1.3-0.7-2.4-1.7-3.2-3c-1.5-2.8-1.5-6.1,0-8.9c0.7-1.3,1.8-2.3,3.2-3C6.5,8.8,8,8.4,9.6,8.4
	c1.5,0,3.1,0.4,4.4,1.1c1.3,0.7,2.4,1.7,3.1,3c1.5,2.8,1.5,6.1,0,8.9c-0.7,1.3-1.8,2.3-3.1,3c-1.4,0.7-2.9,1.1-4.4,1.1
	C8,25.6,6.5,25.2,5.1,24.5z M12.1,21.6c0.8-0.4,1.4-1.1,1.8-1.8c0.9-1.7,0.9-3.8,0-5.5c-0.4-0.8-1.1-1.4-1.8-1.8
	c-1.6-0.9-3.6-0.9-5.2,0c-0.8,0.4-1.4,1.1-1.8,1.8c-0.9,1.7-0.9,3.8,0,5.5c0.4,0.8,1.1,1.4,1.8,1.8c0.8,0.4,1.7,0.7,2.6,0.6
	C10.4,22.3,11.3,22.1,12.1,21.6L12.1,21.6z"/>
<path class="st0" d="M19.8,8.8h3.5l6.9,10.6V8.8h3.6v16.4h-3.5l-6.9-10.6v10.6h-3.6V8.8z"/>
<path class="st1" d="M52.9,25.3c-0.8-0.1-1.6-0.4-2.4-0.7v-3.2c0.8,0.4,1.7,0.7,2.6,0.9c0.8,0.2,1.7,0.3,2.6,0.3
	c0.7,0,1.4-0.1,2.1-0.5c0.5-0.3,0.7-0.8,0.7-1.3c0-0.4-0.1-0.7-0.4-1c-0.3-0.3-0.6-0.6-1-0.8c-0.4-0.2-1.1-0.5-2.1-0.9
	c-1.5-0.6-2.6-1.3-3.3-2.1c-1.3-1.5-1.4-3.7-0.3-5.3c0.5-0.7,1.3-1.3,2.1-1.7c1-0.4,2.1-0.6,3.1-0.6c0.9,0,1.7,0.1,2.6,0.2
	c0.8,0.2,1.5,0.4,2.2,0.7v3.1c-1.3-0.7-2.7-1-4.1-1c-0.7,0-1.4,0.1-2.1,0.5c-0.5,0.3-0.8,0.8-0.7,1.3c0,0.4,0.1,0.7,0.4,1
	c0.3,0.3,0.6,0.5,1,0.7c0.4,0.2,1.1,0.5,2.1,0.9c0.9,0.4,1.8,0.8,2.6,1.4c0.6,0.4,1.1,0.9,1.4,1.5c0.3,0.7,0.5,1.4,0.4,2.2
	c0.1,1.4-0.5,2.6-1.6,3.5c-1.1,0.8-2.7,1.2-4.8,1.2C54.9,25.6,53.9,25.5,52.9,25.3z"/>
<path class="st1" d="M63.8,8.8h6.9c1.9,0,3.4,0.5,4.5,1.5c1.1,1,1.7,2.3,1.7,4.1c0,1.8-0.6,3.2-1.7,4.1c-1.1,1-2.6,1.4-4.5,1.4h-3.3
	v5.3h-3.6L63.8,8.8z M70.2,16.9c2,0,3-0.9,3-2.6c0-1-0.3-1.6-0.8-2c-0.7-0.4-1.4-0.6-2.2-0.6h-2.8v5.1L70.2,16.9z"/>
<path class="st1" d="M81.7,8.8h3.5l6.6,16.4h-3.6l-1.4-3.6h-6.5l-1.4,3.6h-3.7L81.7,8.8z M85.8,18.8l-2.3-6.2l-2.3,6.2H85.8z"/>
<path class="st1" d="M95.7,24.5c-1.3-0.7-2.4-1.7-3.1-3c-1.5-2.8-1.5-6.2,0-9.1c0.7-1.3,1.8-2.3,3.1-3c1.4-0.7,3-1.1,4.6-1
	c2.3,0,4.2,0.5,5.7,1.5v3.4c-0.7-0.6-1.5-1-2.4-1.3c-1-0.3-2-0.4-3-0.4c-1.7,0-3.1,0.5-4,1.4c-1,0.9-1.5,2.2-1.5,3.9
	c0,1.6,0.5,2.9,1.5,3.9c1,0.9,2.3,1.4,4,1.4c1,0,2.1-0.1,3.1-0.4c0.9-0.3,1.8-0.7,2.5-1.3V24c-1.4,1.1-3.4,1.6-5.9,1.6
	C98.8,25.6,97.2,25.2,95.7,24.5z"/>
<rect x="36.3" y="8.7" class="st0" width="11.4" height="3.3"/>
<rect x="36.3" y="15.3" class="st0" width="11.4" height="3.3"/>
<rect x="36.3" y="21.9" class="st0" width="11.4" height="3.3"/>
<rect x="107.8" y="8.7" class="st1" width="11.4" height="3.3"/>
<rect x="107.8" y="15.3" class="st1" width="11.4" height="3.3"/>
<rect x="107.8" y="21.9" class="st1" width="11.4" height="3.3"/>
<ellipse class="st1" cx="9.8" cy="17" rx="3.1" ry="2.9"/>
</svg>
